<svg width="25" height="19" viewBox="0 0 25 19" fill="none" xmlns="http://www.w3.org/2000/svg">
<path fill-rule="evenodd" clip-rule="evenodd" d="M0.171509 1.52763C0.171509 0.927221 0.658239 0.440491 1.25865 0.440491H23.0015C23.6019 0.440491 24.0886 0.927221 24.0886 1.52763C24.0886 2.12805 23.6019 2.61478 23.0015 2.61478H1.25865C0.658241 2.61478 0.171509 2.12805 0.171509 1.52763ZM0.171509 9.50003C0.171509 8.89962 0.658238 8.41289 1.25865 8.41289H23.0015C23.6019 8.41289 24.0886 8.89962 24.0886 9.50003C24.0886 10.1004 23.6019 10.5872 23.0015 10.5872H1.25865C0.658239 10.5872 0.171509 10.1004 0.171509 9.50003ZM1.25865 16.3853C0.658238 16.3853 0.171509 16.872 0.171509 17.4724C0.171509 18.0728 0.658239 18.5595 1.25865 18.5595H23.0015C23.6019 18.5595 24.0886 18.0728 24.0886 17.4724C24.0886 16.872 23.6019 16.3853 23.0015 16.3853H1.25865Z" fill="white"/>
</svg>
