<svg width="20" height="19" viewBox="0 0 20 19" fill="none" xmlns="http://www.w3.org/2000/svg">
<path fill-rule="evenodd" clip-rule="evenodd" d="M7.56702 14.2164C3.64126 14.2164 0.458801 11.034 0.458801 7.10822C0.458801 3.18246 3.64126 0 7.56702 0C11.4928 0 14.6752 3.18246 14.6752 7.10822C14.6752 8.71502 14.1421 10.1973 13.2431 11.3878C13.254 11.3978 13.2647 11.4081 13.2752 11.4186L17.9425 16.0859C18.3391 16.4824 18.3391 17.1254 17.9425 17.522C17.5459 17.9185 16.903 17.9185 16.5064 17.522L11.8392 12.8547C11.8268 12.8423 11.8148 12.8297 11.8031 12.8168C10.6201 13.6962 9.15432 14.2164 7.56702 14.2164ZM12.0012 11.2867C11.9439 11.3243 11.8895 11.3683 11.8392 11.4186C11.7907 11.4671 11.7481 11.5193 11.7115 11.5742C10.6242 12.5837 9.1677 13.201 7.56702 13.201C4.20208 13.201 1.47426 10.4732 1.47426 7.10822C1.47426 3.74328 4.20208 1.01546 7.56702 1.01546C10.932 1.01546 13.6598 3.74328 13.6598 7.10822C13.6598 8.72564 13.0295 10.1959 12.0012 11.2867Z" fill="#ADB7BF"/>
</svg>
